<svg xmlns="http://www.w3.org/2000/svg" xmlns:xlink="http://www.w3.org/1999/xlink" version="1.1" width="500" height="500" viewBox="0 0 500 500" xml:space="preserve">
<desc>Created with Fabric.js 3.5.0</desc>
<defs>
</defs>
<rect x="0" y="0" width="100%" height="100%" fill="rgba(255,255,255,0)"/>
<g transform="matrix(0.7751 0 0 0.7751 250.0052 250.0033)" id="332457">
<g style="" vector-effect="non-scaling-stroke">
		<g transform="matrix(1.9531 0 0 1.9531 -0.0041 -0.0041)" id="tight-bounds">
<path style="stroke: none; stroke-width: 1; stroke-dasharray: none; stroke-linecap: butt; stroke-dashoffset: 0; stroke-linejoin: miter; stroke-miterlimit: 10; is-custom-font: none; font-file-url: none; fill: #ad1d5d; fill-rule: nonzero; opacity: 1;" transform=" translate(-256, -160)" d="M 96 320 l 0 -320 l 320 0 l 0 320 z" stroke-linecap="round"/>
</g>
		<g transform="matrix(8.8277 0 0 8.8277 0.0003 0.0003)" id="text-0">
<path style="stroke: none; stroke-width: 1; stroke-dasharray: none; stroke-linecap: butt; stroke-dashoffset: 0; stroke-linejoin: miter; stroke-miterlimit: 4; is-custom-font: none; font-file-url: none; fill: rgb(255,255,255); fill-rule: nonzero; opacity: 1;" transform=" translate(-19.8, 17.7)" d="M 37.1 0 L 23.9 0 L 13.6 -15.35 L 13.6 0 L 2.5 0 L 2.5 -35.4 L 13.6 -35.4 L 13.6 -20.5 L 23.75 -35.4 L 36.3 -35.4 L 24.1 -18.45 L 37.1 0 Z" stroke-linecap="round"/>
</g>
		<g transform="matrix(1.9531 0 0 1.9531 -0.0065 -0.0041)" id="tight-bounds">
<rect style="stroke: none; stroke-width: 1; stroke-dasharray: none; stroke-linecap: butt; stroke-dashoffset: 0; stroke-linejoin: miter; stroke-miterlimit: 4; is-custom-font: none; font-file-url: none; fill: none; fill-rule: nonzero; opacity: 1;" x="-256" y="-160" rx="0" ry="0" width="512" height="320"/>
</g>
</g>
</g>
</svg>